<mxfile host="app.diagrams.net" modified="2023-11-20T06:30:49.097Z" agent="Mozilla/5.0 (Windows NT 10.0; Win64; x64) AppleWebKit/537.36 (KHTML, like Gecko) Chrome/119.0.0.0 Safari/537.36 Edg/119.0.0.0" etag="_vDnuCZcmjSWaruGwsFl" version="22.1.3" type="device">
  <diagram name="Page-1" id="c4acf3e9-155e-7222-9cf6-157b1a14988f">
    <mxGraphModel dx="2318" dy="993" grid="1" gridSize="10" guides="1" tooltips="1" connect="1" arrows="1" fold="1" page="1" pageScale="1" pageWidth="850" pageHeight="1100" background="#ffffff" math="0" shadow="0">
      <root>
        <mxCell id="0" />
        <mxCell id="1" parent="0" />
        <mxCell id="2ZmqCsTrlQgmf_7_Rd1S-26" style="edgeStyle=orthogonalEdgeStyle;rounded=0;orthogonalLoop=1;jettySize=auto;html=1;exitX=0.5;exitY=0;exitDx=0;exitDy=0;entryX=0.5;entryY=1;entryDx=0;entryDy=0;" parent="1" source="tpzudZCZBXig5IgBzqRn-1" target="2ZmqCsTrlQgmf_7_Rd1S-11" edge="1">
          <mxGeometry relative="1" as="geometry" />
        </mxCell>
        <mxCell id="tpzudZCZBXig5IgBzqRn-1" value="顾客" style="swimlane;fontStyle=0;childLayout=stackLayout;horizontal=1;startSize=30;horizontalStack=0;resizeParent=1;resizeParentMax=0;resizeLast=0;collapsible=1;marginBottom=0;whiteSpace=wrap;html=1;" parent="1" vertex="1">
          <mxGeometry x="120" y="220" width="140" height="150" as="geometry" />
        </mxCell>
        <mxCell id="tpzudZCZBXig5IgBzqRn-2" value="id:int" style="text;strokeColor=none;fillColor=none;align=left;verticalAlign=middle;spacingLeft=4;spacingRight=4;overflow=hidden;points=[[0,0.5],[1,0.5]];portConstraint=eastwest;rotatable=0;whiteSpace=wrap;html=1;" parent="tpzudZCZBXig5IgBzqRn-1" vertex="1">
          <mxGeometry y="30" width="140" height="30" as="geometry" />
        </mxCell>
        <mxCell id="tpzudZCZBXig5IgBzqRn-3" value="name:string" style="text;strokeColor=none;fillColor=none;align=left;verticalAlign=middle;spacingLeft=4;spacingRight=4;overflow=hidden;points=[[0,0.5],[1,0.5]];portConstraint=eastwest;rotatable=0;whiteSpace=wrap;html=1;" parent="tpzudZCZBXig5IgBzqRn-1" vertex="1">
          <mxGeometry y="60" width="140" height="30" as="geometry" />
        </mxCell>
        <mxCell id="tpzudZCZBXig5IgBzqRn-15" value="phoneNumber:string" style="text;strokeColor=none;fillColor=none;align=left;verticalAlign=middle;spacingLeft=4;spacingRight=4;overflow=hidden;points=[[0,0.5],[1,0.5]];portConstraint=eastwest;rotatable=0;whiteSpace=wrap;html=1;" parent="tpzudZCZBXig5IgBzqRn-1" vertex="1">
          <mxGeometry y="90" width="140" height="30" as="geometry" />
        </mxCell>
        <mxCell id="tpzudZCZBXig5IgBzqRn-16" value="DrivingLicence:string" style="text;strokeColor=none;fillColor=none;align=left;verticalAlign=middle;spacingLeft=4;spacingRight=4;overflow=hidden;points=[[0,0.5],[1,0.5]];portConstraint=eastwest;rotatable=0;whiteSpace=wrap;html=1;" parent="tpzudZCZBXig5IgBzqRn-1" vertex="1">
          <mxGeometry y="120" width="140" height="30" as="geometry" />
        </mxCell>
        <mxCell id="tpzudZCZBXig5IgBzqRn-6" value="租车信息" style="swimlane;fontStyle=0;childLayout=stackLayout;horizontal=1;startSize=30;horizontalStack=0;resizeParent=1;resizeParentMax=0;resizeLast=0;collapsible=1;marginBottom=0;whiteSpace=wrap;html=1;" parent="1" vertex="1">
          <mxGeometry x="320" y="30" width="140" height="120" as="geometry">
            <mxRectangle x="390" y="180" width="90" height="30" as="alternateBounds" />
          </mxGeometry>
        </mxCell>
        <mxCell id="tpzudZCZBXig5IgBzqRn-7" value="carid:int" style="text;strokeColor=none;fillColor=none;align=left;verticalAlign=middle;spacingLeft=4;spacingRight=4;overflow=hidden;points=[[0,0.5],[1,0.5]];portConstraint=eastwest;rotatable=0;whiteSpace=wrap;html=1;" parent="tpzudZCZBXig5IgBzqRn-6" vertex="1">
          <mxGeometry y="30" width="140" height="30" as="geometry" />
        </mxCell>
        <mxCell id="tpzudZCZBXig5IgBzqRn-8" value="carType:int" style="text;strokeColor=none;fillColor=none;align=left;verticalAlign=middle;spacingLeft=4;spacingRight=4;overflow=hidden;points=[[0,0.5],[1,0.5]];portConstraint=eastwest;rotatable=0;whiteSpace=wrap;html=1;" parent="tpzudZCZBXig5IgBzqRn-6" vertex="1">
          <mxGeometry y="60" width="140" height="30" as="geometry" />
        </mxCell>
        <mxCell id="tpzudZCZBXig5IgBzqRn-9" value="LeaseDate:String" style="text;strokeColor=none;fillColor=none;align=left;verticalAlign=middle;spacingLeft=4;spacingRight=4;overflow=hidden;points=[[0,0.5],[1,0.5]];portConstraint=eastwest;rotatable=0;whiteSpace=wrap;html=1;" parent="tpzudZCZBXig5IgBzqRn-6" vertex="1">
          <mxGeometry y="90" width="140" height="30" as="geometry" />
        </mxCell>
        <mxCell id="tpzudZCZBXig5IgBzqRn-10" value="" style="endArrow=classic;html=1;rounded=0;exitX=1;exitY=0.5;exitDx=0;exitDy=0;entryX=0.471;entryY=1.067;entryDx=0;entryDy=0;entryPerimeter=0;" parent="1" source="tpzudZCZBXig5IgBzqRn-2" target="tpzudZCZBXig5IgBzqRn-9" edge="1">
          <mxGeometry width="50" height="50" relative="1" as="geometry">
            <mxPoint x="480" y="520" as="sourcePoint" />
            <mxPoint x="290" y="290" as="targetPoint" />
            <Array as="points" />
          </mxGeometry>
        </mxCell>
        <mxCell id="tpzudZCZBXig5IgBzqRn-17" value="个性化建议" style="swimlane;fontStyle=0;childLayout=stackLayout;horizontal=1;startSize=30;horizontalStack=0;resizeParent=1;resizeParentMax=0;resizeLast=0;collapsible=1;marginBottom=0;whiteSpace=wrap;html=1;" parent="1" vertex="1">
          <mxGeometry x="-160" y="420" width="140" height="120" as="geometry">
            <mxRectangle x="390" y="180" width="90" height="30" as="alternateBounds" />
          </mxGeometry>
        </mxCell>
        <mxCell id="tpzudZCZBXig5IgBzqRn-18" value="建议内容：string" style="text;strokeColor=none;fillColor=none;align=left;verticalAlign=middle;spacingLeft=4;spacingRight=4;overflow=hidden;points=[[0,0.5],[1,0.5]];portConstraint=eastwest;rotatable=0;whiteSpace=wrap;html=1;" parent="tpzudZCZBXig5IgBzqRn-17" vertex="1">
          <mxGeometry y="30" width="140" height="30" as="geometry" />
        </mxCell>
        <mxCell id="tpzudZCZBXig5IgBzqRn-19" value="优惠信息：string" style="text;strokeColor=none;fillColor=none;align=left;verticalAlign=middle;spacingLeft=4;spacingRight=4;overflow=hidden;points=[[0,0.5],[1,0.5]];portConstraint=eastwest;rotatable=0;whiteSpace=wrap;html=1;" parent="tpzudZCZBXig5IgBzqRn-17" vertex="1">
          <mxGeometry y="60" width="140" height="30" as="geometry" />
        </mxCell>
        <mxCell id="tpzudZCZBXig5IgBzqRn-20" value="套餐信息：string" style="text;strokeColor=none;fillColor=none;align=left;verticalAlign=middle;spacingLeft=4;spacingRight=4;overflow=hidden;points=[[0,0.5],[1,0.5]];portConstraint=eastwest;rotatable=0;whiteSpace=wrap;html=1;" parent="tpzudZCZBXig5IgBzqRn-17" vertex="1">
          <mxGeometry y="90" width="140" height="30" as="geometry" />
        </mxCell>
        <mxCell id="tpzudZCZBXig5IgBzqRn-21" value="车辆" style="swimlane;fontStyle=0;childLayout=stackLayout;horizontal=1;startSize=30;horizontalStack=0;resizeParent=1;resizeParentMax=0;resizeLast=0;collapsible=1;marginBottom=0;whiteSpace=wrap;html=1;" parent="1" vertex="1">
          <mxGeometry x="580" y="570" width="140" height="120" as="geometry">
            <mxRectangle x="390" y="180" width="90" height="30" as="alternateBounds" />
          </mxGeometry>
        </mxCell>
        <mxCell id="tpzudZCZBXig5IgBzqRn-23" value="可用性：string" style="text;strokeColor=none;fillColor=none;align=left;verticalAlign=middle;spacingLeft=4;spacingRight=4;overflow=hidden;points=[[0,0.5],[1,0.5]];portConstraint=eastwest;rotatable=0;whiteSpace=wrap;html=1;" parent="tpzudZCZBXig5IgBzqRn-21" vertex="1">
          <mxGeometry y="30" width="140" height="30" as="geometry" />
        </mxCell>
        <mxCell id="tpzudZCZBXig5IgBzqRn-22" value="车型：string" style="text;strokeColor=none;fillColor=none;align=left;verticalAlign=middle;spacingLeft=4;spacingRight=4;overflow=hidden;points=[[0,0.5],[1,0.5]];portConstraint=eastwest;rotatable=0;whiteSpace=wrap;html=1;" parent="tpzudZCZBXig5IgBzqRn-21" vertex="1">
          <mxGeometry y="60" width="140" height="30" as="geometry" />
        </mxCell>
        <mxCell id="tpzudZCZBXig5IgBzqRn-24" value="租金：float" style="text;strokeColor=none;fillColor=none;align=left;verticalAlign=middle;spacingLeft=4;spacingRight=4;overflow=hidden;points=[[0,0.5],[1,0.5]];portConstraint=eastwest;rotatable=0;whiteSpace=wrap;html=1;" parent="tpzudZCZBXig5IgBzqRn-21" vertex="1">
          <mxGeometry y="90" width="140" height="30" as="geometry" />
        </mxCell>
        <mxCell id="tpzudZCZBXig5IgBzqRn-25" value="包月支付信息" style="swimlane;fontStyle=0;childLayout=stackLayout;horizontal=1;startSize=30;horizontalStack=0;resizeParent=1;resizeParentMax=0;resizeLast=0;collapsible=1;marginBottom=0;whiteSpace=wrap;html=1;" parent="1" vertex="1">
          <mxGeometry x="-80" y="719" width="140" height="120" as="geometry">
            <mxRectangle x="390" y="180" width="90" height="30" as="alternateBounds" />
          </mxGeometry>
        </mxCell>
        <mxCell id="tpzudZCZBXig5IgBzqRn-26" value="包月租金：float" style="text;strokeColor=none;fillColor=none;align=left;verticalAlign=middle;spacingLeft=4;spacingRight=4;overflow=hidden;points=[[0,0.5],[1,0.5]];portConstraint=eastwest;rotatable=0;whiteSpace=wrap;html=1;" parent="tpzudZCZBXig5IgBzqRn-25" vertex="1">
          <mxGeometry y="30" width="140" height="30" as="geometry" />
        </mxCell>
        <mxCell id="tpzudZCZBXig5IgBzqRn-27" value="包月周期：int" style="text;strokeColor=none;fillColor=none;align=left;verticalAlign=middle;spacingLeft=4;spacingRight=4;overflow=hidden;points=[[0,0.5],[1,0.5]];portConstraint=eastwest;rotatable=0;whiteSpace=wrap;html=1;" parent="tpzudZCZBXig5IgBzqRn-25" vertex="1">
          <mxGeometry y="60" width="140" height="30" as="geometry" />
        </mxCell>
        <mxCell id="tpzudZCZBXig5IgBzqRn-28" value="自动续订选项：bool" style="text;strokeColor=none;fillColor=none;align=left;verticalAlign=middle;spacingLeft=4;spacingRight=4;overflow=hidden;points=[[0,0.5],[1,0.5]];portConstraint=eastwest;rotatable=0;whiteSpace=wrap;html=1;" parent="tpzudZCZBXig5IgBzqRn-25" vertex="1">
          <mxGeometry y="90" width="140" height="30" as="geometry" />
        </mxCell>
        <mxCell id="2ZmqCsTrlQgmf_7_Rd1S-7" value="订单" style="swimlane;fontStyle=0;childLayout=stackLayout;horizontal=1;startSize=30;horizontalStack=0;resizeParent=1;resizeParentMax=0;resizeLast=0;collapsible=1;marginBottom=0;whiteSpace=wrap;html=1;" parent="1" vertex="1">
          <mxGeometry x="280" y="560" width="140" height="120" as="geometry">
            <mxRectangle x="390" y="180" width="90" height="30" as="alternateBounds" />
          </mxGeometry>
        </mxCell>
        <mxCell id="2ZmqCsTrlQgmf_7_Rd1S-8" value="订单id:int" style="text;strokeColor=none;fillColor=none;align=left;verticalAlign=middle;spacingLeft=4;spacingRight=4;overflow=hidden;points=[[0,0.5],[1,0.5]];portConstraint=eastwest;rotatable=0;whiteSpace=wrap;html=1;" parent="2ZmqCsTrlQgmf_7_Rd1S-7" vertex="1">
          <mxGeometry y="30" width="140" height="30" as="geometry" />
        </mxCell>
        <mxCell id="2ZmqCsTrlQgmf_7_Rd1S-9" value="租车信息：string" style="text;strokeColor=none;fillColor=none;align=left;verticalAlign=middle;spacingLeft=4;spacingRight=4;overflow=hidden;points=[[0,0.5],[1,0.5]];portConstraint=eastwest;rotatable=0;whiteSpace=wrap;html=1;" parent="2ZmqCsTrlQgmf_7_Rd1S-7" vertex="1">
          <mxGeometry y="60" width="140" height="30" as="geometry" />
        </mxCell>
        <mxCell id="2ZmqCsTrlQgmf_7_Rd1S-10" value="支付信息：string" style="text;strokeColor=none;fillColor=none;align=left;verticalAlign=middle;spacingLeft=4;spacingRight=4;overflow=hidden;points=[[0,0.5],[1,0.5]];portConstraint=eastwest;rotatable=0;whiteSpace=wrap;html=1;" parent="2ZmqCsTrlQgmf_7_Rd1S-7" vertex="1">
          <mxGeometry y="90" width="140" height="30" as="geometry" />
        </mxCell>
        <mxCell id="2ZmqCsTrlQgmf_7_Rd1S-11" value="反馈信息" style="swimlane;fontStyle=0;childLayout=stackLayout;horizontal=1;startSize=30;horizontalStack=0;resizeParent=1;resizeParentMax=0;resizeLast=0;collapsible=1;marginBottom=0;whiteSpace=wrap;html=1;" parent="1" vertex="1">
          <mxGeometry x="120" y="30" width="140" height="120" as="geometry">
            <mxRectangle x="390" y="180" width="90" height="30" as="alternateBounds" />
          </mxGeometry>
        </mxCell>
        <mxCell id="2ZmqCsTrlQgmf_7_Rd1S-12" value="反馈内容：string" style="text;strokeColor=none;fillColor=none;align=left;verticalAlign=middle;spacingLeft=4;spacingRight=4;overflow=hidden;points=[[0,0.5],[1,0.5]];portConstraint=eastwest;rotatable=0;whiteSpace=wrap;html=1;" parent="2ZmqCsTrlQgmf_7_Rd1S-11" vertex="1">
          <mxGeometry y="30" width="140" height="30" as="geometry" />
        </mxCell>
        <mxCell id="2ZmqCsTrlQgmf_7_Rd1S-13" value="评分：int" style="text;strokeColor=none;fillColor=none;align=left;verticalAlign=middle;spacingLeft=4;spacingRight=4;overflow=hidden;points=[[0,0.5],[1,0.5]];portConstraint=eastwest;rotatable=0;whiteSpace=wrap;html=1;" parent="2ZmqCsTrlQgmf_7_Rd1S-11" vertex="1">
          <mxGeometry y="60" width="140" height="30" as="geometry" />
        </mxCell>
        <mxCell id="2ZmqCsTrlQgmf_7_Rd1S-14" value="时间：string" style="text;strokeColor=none;fillColor=none;align=left;verticalAlign=middle;spacingLeft=4;spacingRight=4;overflow=hidden;points=[[0,0.5],[1,0.5]];portConstraint=eastwest;rotatable=0;whiteSpace=wrap;html=1;" parent="2ZmqCsTrlQgmf_7_Rd1S-11" vertex="1">
          <mxGeometry y="90" width="140" height="30" as="geometry" />
        </mxCell>
        <mxCell id="2ZmqCsTrlQgmf_7_Rd1S-16" value="使用" style="text;strokeColor=none;fillColor=none;align=left;verticalAlign=middle;spacingLeft=4;spacingRight=4;overflow=hidden;points=[[0,0.5],[1,0.5]];portConstraint=eastwest;rotatable=0;whiteSpace=wrap;html=1;" parent="1" vertex="1">
          <mxGeometry x="170" y="450" width="40" height="20" as="geometry" />
        </mxCell>
        <mxCell id="2ZmqCsTrlQgmf_7_Rd1S-19" value="租借" style="text;strokeColor=none;fillColor=none;align=left;verticalAlign=middle;spacingLeft=4;spacingRight=4;overflow=hidden;points=[[0,0.5],[1,0.5]];portConstraint=eastwest;rotatable=0;whiteSpace=wrap;html=1;" parent="1" vertex="1">
          <mxGeometry x="470" y="630" width="40" height="30" as="geometry" />
        </mxCell>
        <mxCell id="2ZmqCsTrlQgmf_7_Rd1S-22" value="加盟商合同" style="swimlane;fontStyle=0;childLayout=stackLayout;horizontal=1;startSize=30;horizontalStack=0;resizeParent=1;resizeParentMax=0;resizeLast=0;collapsible=1;marginBottom=0;whiteSpace=wrap;html=1;" parent="1" vertex="1">
          <mxGeometry x="290" y="780" width="140" height="120" as="geometry">
            <mxRectangle x="390" y="180" width="90" height="30" as="alternateBounds" />
          </mxGeometry>
        </mxCell>
        <mxCell id="2ZmqCsTrlQgmf_7_Rd1S-23" value="合同ID：int" style="text;strokeColor=none;fillColor=none;align=left;verticalAlign=middle;spacingLeft=4;spacingRight=4;overflow=hidden;points=[[0,0.5],[1,0.5]];portConstraint=eastwest;rotatable=0;whiteSpace=wrap;html=1;" parent="2ZmqCsTrlQgmf_7_Rd1S-22" vertex="1">
          <mxGeometry y="30" width="140" height="30" as="geometry" />
        </mxCell>
        <mxCell id="2ZmqCsTrlQgmf_7_Rd1S-24" value="有效期：string" style="text;strokeColor=none;fillColor=none;align=left;verticalAlign=middle;spacingLeft=4;spacingRight=4;overflow=hidden;points=[[0,0.5],[1,0.5]];portConstraint=eastwest;rotatable=0;whiteSpace=wrap;html=1;" parent="2ZmqCsTrlQgmf_7_Rd1S-22" vertex="1">
          <mxGeometry y="60" width="140" height="30" as="geometry" />
        </mxCell>
        <mxCell id="2ZmqCsTrlQgmf_7_Rd1S-25" value="合作条款：string" style="text;strokeColor=none;fillColor=none;align=left;verticalAlign=middle;spacingLeft=4;spacingRight=4;overflow=hidden;points=[[0,0.5],[1,0.5]];portConstraint=eastwest;rotatable=0;whiteSpace=wrap;html=1;" parent="2ZmqCsTrlQgmf_7_Rd1S-22" vertex="1">
          <mxGeometry y="90" width="140" height="30" as="geometry" />
        </mxCell>
        <mxCell id="2ZmqCsTrlQgmf_7_Rd1S-27" value="反馈" style="text;html=1;strokeColor=none;fillColor=none;align=center;verticalAlign=middle;whiteSpace=wrap;rounded=0;" parent="1" vertex="1">
          <mxGeometry x="190" y="180" width="60" height="30" as="geometry" />
        </mxCell>
        <mxCell id="2ZmqCsTrlQgmf_7_Rd1S-29" value="创建" style="text;html=1;strokeColor=none;fillColor=none;align=center;verticalAlign=middle;whiteSpace=wrap;rounded=0;" parent="1" vertex="1">
          <mxGeometry y="510" width="60" height="40" as="geometry" />
        </mxCell>
        <mxCell id="2ZmqCsTrlQgmf_7_Rd1S-33" value="" style="endArrow=none;html=1;rounded=0;entryX=0;entryY=0.5;entryDx=0;entryDy=0;exitX=0.5;exitY=0;exitDx=0;exitDy=0;" parent="1" source="tpzudZCZBXig5IgBzqRn-25" target="tpzudZCZBXig5IgBzqRn-16" edge="1">
          <mxGeometry width="50" height="50" relative="1" as="geometry">
            <mxPoint x="10" y="610" as="sourcePoint" />
            <mxPoint x="60" y="560" as="targetPoint" />
          </mxGeometry>
        </mxCell>
        <mxCell id="2ZmqCsTrlQgmf_7_Rd1S-34" value="合同管理员" style="swimlane;fontStyle=0;childLayout=stackLayout;horizontal=1;startSize=30;horizontalStack=0;resizeParent=1;resizeParentMax=0;resizeLast=0;collapsible=1;marginBottom=0;whiteSpace=wrap;html=1;" parent="1" vertex="1">
          <mxGeometry x="610" y="790" width="140" height="90" as="geometry">
            <mxRectangle x="390" y="180" width="90" height="30" as="alternateBounds" />
          </mxGeometry>
        </mxCell>
        <mxCell id="2ZmqCsTrlQgmf_7_Rd1S-35" value="合同管理员ID：int" style="text;strokeColor=none;fillColor=none;align=left;verticalAlign=middle;spacingLeft=4;spacingRight=4;overflow=hidden;points=[[0,0.5],[1,0.5]];portConstraint=eastwest;rotatable=0;whiteSpace=wrap;html=1;" parent="2ZmqCsTrlQgmf_7_Rd1S-34" vertex="1">
          <mxGeometry y="30" width="140" height="30" as="geometry" />
        </mxCell>
        <mxCell id="2ZmqCsTrlQgmf_7_Rd1S-36" value="名字：string" style="text;strokeColor=none;fillColor=none;align=left;verticalAlign=middle;spacingLeft=4;spacingRight=4;overflow=hidden;points=[[0,0.5],[1,0.5]];portConstraint=eastwest;rotatable=0;whiteSpace=wrap;html=1;" parent="2ZmqCsTrlQgmf_7_Rd1S-34" vertex="1">
          <mxGeometry y="60" width="140" height="30" as="geometry" />
        </mxCell>
        <mxCell id="2ZmqCsTrlQgmf_7_Rd1S-38" style="edgeStyle=orthogonalEdgeStyle;rounded=0;orthogonalLoop=1;jettySize=auto;html=1;exitX=0;exitY=0.5;exitDx=0;exitDy=0;entryX=0.964;entryY=-0.114;entryDx=0;entryDy=0;entryPerimeter=0;" parent="1" source="2ZmqCsTrlQgmf_7_Rd1S-35" target="2ZmqCsTrlQgmf_7_Rd1S-24" edge="1">
          <mxGeometry relative="1" as="geometry" />
        </mxCell>
        <mxCell id="2ZmqCsTrlQgmf_7_Rd1S-39" value="管理" style="text;html=1;strokeColor=none;fillColor=none;align=center;verticalAlign=middle;whiteSpace=wrap;rounded=0;" parent="1" vertex="1">
          <mxGeometry x="480" y="809" width="60" height="30" as="geometry" />
        </mxCell>
        <mxCell id="2ZmqCsTrlQgmf_7_Rd1S-41" value="加盟商" style="swimlane;fontStyle=0;childLayout=stackLayout;horizontal=1;startSize=30;horizontalStack=0;resizeParent=1;resizeParentMax=0;resizeLast=0;collapsible=1;marginBottom=0;whiteSpace=wrap;html=1;" parent="1" vertex="1">
          <mxGeometry x="50" y="870" width="140" height="90" as="geometry">
            <mxRectangle x="390" y="180" width="90" height="30" as="alternateBounds" />
          </mxGeometry>
        </mxCell>
        <mxCell id="2ZmqCsTrlQgmf_7_Rd1S-42" value="加盟商ID：int" style="text;strokeColor=none;fillColor=none;align=left;verticalAlign=middle;spacingLeft=4;spacingRight=4;overflow=hidden;points=[[0,0.5],[1,0.5]];portConstraint=eastwest;rotatable=0;whiteSpace=wrap;html=1;" parent="2ZmqCsTrlQgmf_7_Rd1S-41" vertex="1">
          <mxGeometry y="30" width="140" height="30" as="geometry" />
        </mxCell>
        <mxCell id="2ZmqCsTrlQgmf_7_Rd1S-43" value="公司名：string" style="text;strokeColor=none;fillColor=none;align=left;verticalAlign=middle;spacingLeft=4;spacingRight=4;overflow=hidden;points=[[0,0.5],[1,0.5]];portConstraint=eastwest;rotatable=0;whiteSpace=wrap;html=1;" parent="2ZmqCsTrlQgmf_7_Rd1S-41" vertex="1">
          <mxGeometry y="60" width="140" height="30" as="geometry" />
        </mxCell>
        <mxCell id="2ZmqCsTrlQgmf_7_Rd1S-47" value="" style="endArrow=none;html=1;rounded=0;entryX=-0.021;entryY=-0.148;entryDx=0;entryDy=0;entryPerimeter=0;exitX=1;exitY=0.5;exitDx=0;exitDy=0;" parent="1" source="2ZmqCsTrlQgmf_7_Rd1S-42" target="2ZmqCsTrlQgmf_7_Rd1S-24" edge="1">
          <mxGeometry width="50" height="50" relative="1" as="geometry">
            <mxPoint x="260" y="1010" as="sourcePoint" />
            <mxPoint x="310" y="960" as="targetPoint" />
            <Array as="points" />
          </mxGeometry>
        </mxCell>
        <mxCell id="2ZmqCsTrlQgmf_7_Rd1S-49" value="" style="endArrow=classic;html=1;rounded=0;exitX=1;exitY=0.5;exitDx=0;exitDy=0;entryX=-0.011;entryY=0.048;entryDx=0;entryDy=0;entryPerimeter=0;" parent="1" source="2ZmqCsTrlQgmf_7_Rd1S-9" target="tpzudZCZBXig5IgBzqRn-22" edge="1">
          <mxGeometry width="50" height="50" relative="1" as="geometry">
            <mxPoint x="260" y="670" as="sourcePoint" />
            <mxPoint x="310" y="620" as="targetPoint" />
          </mxGeometry>
        </mxCell>
        <mxCell id="2ZmqCsTrlQgmf_7_Rd1S-51" value="" style="endArrow=classic;html=1;rounded=0;entryX=0.5;entryY=0;entryDx=0;entryDy=0;" parent="1" source="tpzudZCZBXig5IgBzqRn-16" target="2ZmqCsTrlQgmf_7_Rd1S-78" edge="1">
          <mxGeometry width="50" height="50" relative="1" as="geometry">
            <mxPoint x="360" y="730" as="sourcePoint" />
            <mxPoint x="410" y="680" as="targetPoint" />
          </mxGeometry>
        </mxCell>
        <mxCell id="2ZmqCsTrlQgmf_7_Rd1S-52" value="" style="endArrow=classic;html=1;rounded=0;exitX=0;exitY=0.5;exitDx=0;exitDy=0;entryX=1;entryY=-0.122;entryDx=0;entryDy=0;entryPerimeter=0;" parent="1" source="tpzudZCZBXig5IgBzqRn-16" target="tpzudZCZBXig5IgBzqRn-19" edge="1">
          <mxGeometry width="50" height="50" relative="1" as="geometry">
            <mxPoint x="360" y="550" as="sourcePoint" />
            <mxPoint x="410" y="500" as="targetPoint" />
          </mxGeometry>
        </mxCell>
        <mxCell id="2ZmqCsTrlQgmf_7_Rd1S-53" value="系统管理员" style="swimlane;fontStyle=0;childLayout=stackLayout;horizontal=1;startSize=30;horizontalStack=0;resizeParent=1;resizeParentMax=0;resizeLast=0;collapsible=1;marginBottom=0;whiteSpace=wrap;html=1;" parent="1" vertex="1">
          <mxGeometry x="-700" y="330" width="140" height="120" as="geometry" />
        </mxCell>
        <mxCell id="2ZmqCsTrlQgmf_7_Rd1S-54" value="ID：int" style="text;strokeColor=none;fillColor=none;align=left;verticalAlign=middle;spacingLeft=4;spacingRight=4;overflow=hidden;points=[[0,0.5],[1,0.5]];portConstraint=eastwest;rotatable=0;whiteSpace=wrap;html=1;" parent="2ZmqCsTrlQgmf_7_Rd1S-53" vertex="1">
          <mxGeometry y="30" width="140" height="30" as="geometry" />
        </mxCell>
        <mxCell id="2ZmqCsTrlQgmf_7_Rd1S-55" value="名字：string" style="text;strokeColor=none;fillColor=none;align=left;verticalAlign=middle;spacingLeft=4;spacingRight=4;overflow=hidden;points=[[0,0.5],[1,0.5]];portConstraint=eastwest;rotatable=0;whiteSpace=wrap;html=1;" parent="2ZmqCsTrlQgmf_7_Rd1S-53" vertex="1">
          <mxGeometry y="60" width="140" height="30" as="geometry" />
        </mxCell>
        <mxCell id="2ZmqCsTrlQgmf_7_Rd1S-56" value="权限：string" style="text;strokeColor=none;fillColor=none;align=left;verticalAlign=middle;spacingLeft=4;spacingRight=4;overflow=hidden;points=[[0,0.5],[1,0.5]];portConstraint=eastwest;rotatable=0;whiteSpace=wrap;html=1;" parent="2ZmqCsTrlQgmf_7_Rd1S-53" vertex="1">
          <mxGeometry y="90" width="140" height="30" as="geometry" />
        </mxCell>
        <mxCell id="2ZmqCsTrlQgmf_7_Rd1S-57" value="" style="endArrow=classic;html=1;rounded=0;exitX=0.5;exitY=0;exitDx=0;exitDy=0;entryX=0;entryY=0.5;entryDx=0;entryDy=0;" parent="1" source="2ZmqCsTrlQgmf_7_Rd1S-53" target="2ZmqCsTrlQgmf_7_Rd1S-110" edge="1">
          <mxGeometry width="50" height="50" relative="1" as="geometry">
            <mxPoint x="70" y="140" as="sourcePoint" />
            <mxPoint x="-440" y="110" as="targetPoint" />
          </mxGeometry>
        </mxCell>
        <mxCell id="2ZmqCsTrlQgmf_7_Rd1S-61" value="" style="endArrow=classic;html=1;rounded=0;exitX=1;exitY=0.5;exitDx=0;exitDy=0;entryX=0;entryY=0.5;entryDx=0;entryDy=0;" parent="1" source="2ZmqCsTrlQgmf_7_Rd1S-55" target="tpzudZCZBXig5IgBzqRn-3" edge="1">
          <mxGeometry width="50" height="50" relative="1" as="geometry">
            <mxPoint x="-100" y="370" as="sourcePoint" />
            <mxPoint y="340" as="targetPoint" />
          </mxGeometry>
        </mxCell>
        <mxCell id="2ZmqCsTrlQgmf_7_Rd1S-62" value="反馈系统" style="swimlane;fontStyle=0;childLayout=stackLayout;horizontal=1;startSize=30;horizontalStack=0;resizeParent=1;resizeParentMax=0;resizeLast=0;collapsible=1;marginBottom=0;whiteSpace=wrap;html=1;" parent="1" vertex="1">
          <mxGeometry x="-220" y="15" width="140" height="60" as="geometry" />
        </mxCell>
        <mxCell id="2ZmqCsTrlQgmf_7_Rd1S-63" value="反阔信息" style="text;strokeColor=none;fillColor=none;align=left;verticalAlign=middle;spacingLeft=4;spacingRight=4;overflow=hidden;points=[[0,0.5],[1,0.5]];portConstraint=eastwest;rotatable=0;whiteSpace=wrap;html=1;" parent="2ZmqCsTrlQgmf_7_Rd1S-62" vertex="1">
          <mxGeometry y="30" width="140" height="30" as="geometry" />
        </mxCell>
        <mxCell id="2ZmqCsTrlQgmf_7_Rd1S-66" value="" style="endArrow=classic;html=1;rounded=0;exitX=1;exitY=0.5;exitDx=0;exitDy=0;entryX=0;entryY=0.25;entryDx=0;entryDy=0;" parent="1" source="2ZmqCsTrlQgmf_7_Rd1S-63" target="2ZmqCsTrlQgmf_7_Rd1S-11" edge="1">
          <mxGeometry width="50" height="50" relative="1" as="geometry">
            <mxPoint x="-130" y="190" as="sourcePoint" />
            <mxPoint x="-80" y="140" as="targetPoint" />
          </mxGeometry>
        </mxCell>
        <mxCell id="2ZmqCsTrlQgmf_7_Rd1S-67" value="管理" style="text;html=1;strokeColor=none;fillColor=none;align=center;verticalAlign=middle;whiteSpace=wrap;rounded=0;" parent="1" vertex="1">
          <mxGeometry x="-60" y="30" width="60" height="30" as="geometry" />
        </mxCell>
        <mxCell id="2ZmqCsTrlQgmf_7_Rd1S-70" value="管理" style="text;html=1;strokeColor=none;fillColor=none;align=center;verticalAlign=middle;whiteSpace=wrap;rounded=0;" parent="1" vertex="1">
          <mxGeometry x="-230" y="305" width="60" height="30" as="geometry" />
        </mxCell>
        <mxCell id="2ZmqCsTrlQgmf_7_Rd1S-71" value="建议生成系统" style="swimlane;fontStyle=0;childLayout=stackLayout;horizontal=1;startSize=30;horizontalStack=0;resizeParent=1;resizeParentMax=0;resizeLast=0;collapsible=1;marginBottom=0;whiteSpace=wrap;html=1;" parent="1" vertex="1">
          <mxGeometry x="-450" y="450" width="140" height="60" as="geometry" />
        </mxCell>
        <mxCell id="2ZmqCsTrlQgmf_7_Rd1S-72" value="建议列表：List&amp;lt;建议&amp;gt;" style="text;strokeColor=none;fillColor=none;align=left;verticalAlign=middle;spacingLeft=4;spacingRight=4;overflow=hidden;points=[[0,0.5],[1,0.5]];portConstraint=eastwest;rotatable=0;whiteSpace=wrap;html=1;" parent="2ZmqCsTrlQgmf_7_Rd1S-71" vertex="1">
          <mxGeometry y="30" width="140" height="30" as="geometry" />
        </mxCell>
        <mxCell id="2ZmqCsTrlQgmf_7_Rd1S-75" value="" style="endArrow=classic;html=1;rounded=0;entryX=0;entryY=0.5;entryDx=0;entryDy=0;exitX=1;exitY=0.25;exitDx=0;exitDy=0;" parent="1" source="2ZmqCsTrlQgmf_7_Rd1S-71" target="tpzudZCZBXig5IgBzqRn-19" edge="1">
          <mxGeometry width="50" height="50" relative="1" as="geometry">
            <mxPoint x="-330" y="560" as="sourcePoint" />
            <mxPoint x="-280" y="510" as="targetPoint" />
          </mxGeometry>
        </mxCell>
        <mxCell id="2ZmqCsTrlQgmf_7_Rd1S-77" value="" style="endArrow=classic;html=1;rounded=0;entryX=0;entryY=0.5;entryDx=0;entryDy=0;exitX=0.393;exitY=0.964;exitDx=0;exitDy=0;exitPerimeter=0;" parent="1" source="2ZmqCsTrlQgmf_7_Rd1S-56" target="2ZmqCsTrlQgmf_7_Rd1S-71" edge="1">
          <mxGeometry width="50" height="50" relative="1" as="geometry">
            <mxPoint x="-600" y="520" as="sourcePoint" />
            <mxPoint x="-550" y="470" as="targetPoint" />
          </mxGeometry>
        </mxCell>
        <mxCell id="2ZmqCsTrlQgmf_7_Rd1S-78" value="预约管理" style="swimlane;fontStyle=0;childLayout=stackLayout;horizontal=1;startSize=30;horizontalStack=0;resizeParent=1;resizeParentMax=0;resizeLast=0;collapsible=1;marginBottom=0;whiteSpace=wrap;html=1;" parent="1" vertex="1">
          <mxGeometry x="80" y="530" width="140" height="60" as="geometry" />
        </mxCell>
        <mxCell id="2ZmqCsTrlQgmf_7_Rd1S-79" value="订单列表：List&amp;lt;订单&amp;gt;" style="text;strokeColor=none;fillColor=none;align=left;verticalAlign=middle;spacingLeft=4;spacingRight=4;overflow=hidden;points=[[0,0.5],[1,0.5]];portConstraint=eastwest;rotatable=0;whiteSpace=wrap;html=1;" parent="2ZmqCsTrlQgmf_7_Rd1S-78" vertex="1">
          <mxGeometry y="30" width="140" height="30" as="geometry" />
        </mxCell>
        <mxCell id="2ZmqCsTrlQgmf_7_Rd1S-81" value="" style="endArrow=classic;html=1;rounded=0;exitX=1.012;exitY=0.044;exitDx=0;exitDy=0;exitPerimeter=0;entryX=0;entryY=0.5;entryDx=0;entryDy=0;" parent="1" source="2ZmqCsTrlQgmf_7_Rd1S-79" target="2ZmqCsTrlQgmf_7_Rd1S-9" edge="1">
          <mxGeometry width="50" height="50" relative="1" as="geometry">
            <mxPoint x="-100" y="710" as="sourcePoint" />
            <mxPoint x="-50" y="660" as="targetPoint" />
          </mxGeometry>
        </mxCell>
        <mxCell id="2ZmqCsTrlQgmf_7_Rd1S-82" value="订单管理" style="swimlane;fontStyle=0;childLayout=stackLayout;horizontal=1;startSize=30;horizontalStack=0;resizeParent=1;resizeParentMax=0;resizeLast=0;collapsible=1;marginBottom=0;whiteSpace=wrap;html=1;" parent="1" vertex="1">
          <mxGeometry x="420" y="290" width="140" height="60" as="geometry" />
        </mxCell>
        <mxCell id="2ZmqCsTrlQgmf_7_Rd1S-83" value="订单列表：List&amp;lt;订单&amp;gt;" style="text;strokeColor=none;fillColor=none;align=left;verticalAlign=middle;spacingLeft=4;spacingRight=4;overflow=hidden;points=[[0,0.5],[1,0.5]];portConstraint=eastwest;rotatable=0;whiteSpace=wrap;html=1;" parent="2ZmqCsTrlQgmf_7_Rd1S-82" vertex="1">
          <mxGeometry y="30" width="140" height="30" as="geometry" />
        </mxCell>
        <mxCell id="2ZmqCsTrlQgmf_7_Rd1S-84" value="" style="endArrow=classic;html=1;rounded=0;exitX=1;exitY=0.5;exitDx=0;exitDy=0;entryX=0;entryY=0.25;entryDx=0;entryDy=0;" parent="1" source="tpzudZCZBXig5IgBzqRn-3" target="2ZmqCsTrlQgmf_7_Rd1S-82" edge="1">
          <mxGeometry width="50" height="50" relative="1" as="geometry">
            <mxPoint x="350" y="320" as="sourcePoint" />
            <mxPoint x="400" y="270" as="targetPoint" />
          </mxGeometry>
        </mxCell>
        <mxCell id="2ZmqCsTrlQgmf_7_Rd1S-85" value="" style="endArrow=classic;html=1;rounded=0;entryX=0.5;entryY=0;entryDx=0;entryDy=0;" parent="1" source="2ZmqCsTrlQgmf_7_Rd1S-83" target="2ZmqCsTrlQgmf_7_Rd1S-7" edge="1">
          <mxGeometry width="50" height="50" relative="1" as="geometry">
            <mxPoint x="490" y="470" as="sourcePoint" />
            <mxPoint x="540" y="420" as="targetPoint" />
          </mxGeometry>
        </mxCell>
        <mxCell id="2ZmqCsTrlQgmf_7_Rd1S-86" value="扣费系统" style="swimlane;fontStyle=0;childLayout=stackLayout;horizontal=1;startSize=30;horizontalStack=0;resizeParent=1;resizeParentMax=0;resizeLast=0;collapsible=1;marginBottom=0;whiteSpace=wrap;html=1;" parent="1" vertex="1">
          <mxGeometry x="520" y="400" width="140" height="60" as="geometry" />
        </mxCell>
        <mxCell id="2ZmqCsTrlQgmf_7_Rd1S-87" value="累计扣费：int" style="text;strokeColor=none;fillColor=none;align=left;verticalAlign=middle;spacingLeft=4;spacingRight=4;overflow=hidden;points=[[0,0.5],[1,0.5]];portConstraint=eastwest;rotatable=0;whiteSpace=wrap;html=1;" parent="2ZmqCsTrlQgmf_7_Rd1S-86" vertex="1">
          <mxGeometry y="30" width="140" height="30" as="geometry" />
        </mxCell>
        <mxCell id="2ZmqCsTrlQgmf_7_Rd1S-90" value="" style="endArrow=none;html=1;rounded=0;exitX=1.011;exitY=0.037;exitDx=0;exitDy=0;exitPerimeter=0;entryX=-0.014;entryY=0.166;entryDx=0;entryDy=0;entryPerimeter=0;" parent="1" source="tpzudZCZBXig5IgBzqRn-16" target="2ZmqCsTrlQgmf_7_Rd1S-86" edge="1">
          <mxGeometry width="50" height="50" relative="1" as="geometry">
            <mxPoint x="340" y="420" as="sourcePoint" />
            <mxPoint x="510" y="430" as="targetPoint" />
          </mxGeometry>
        </mxCell>
        <mxCell id="2ZmqCsTrlQgmf_7_Rd1S-92" value="" style="endArrow=classic;html=1;rounded=0;entryX=1;entryY=0.167;entryDx=0;entryDy=0;entryPerimeter=0;" parent="1" source="2ZmqCsTrlQgmf_7_Rd1S-87" target="2ZmqCsTrlQgmf_7_Rd1S-7" edge="1">
          <mxGeometry width="50" height="50" relative="1" as="geometry">
            <mxPoint x="570" y="550" as="sourcePoint" />
            <mxPoint x="630" y="500" as="targetPoint" />
          </mxGeometry>
        </mxCell>
        <mxCell id="2ZmqCsTrlQgmf_7_Rd1S-93" value="合同生成系统" style="swimlane;fontStyle=0;childLayout=stackLayout;horizontal=1;startSize=30;horizontalStack=0;resizeParent=1;resizeParentMax=0;resizeLast=0;collapsible=1;marginBottom=0;whiteSpace=wrap;html=1;" parent="1" vertex="1">
          <mxGeometry x="750" y="410" width="140" height="90" as="geometry" />
        </mxCell>
        <mxCell id="2ZmqCsTrlQgmf_7_Rd1S-94" value="合同类型：string" style="text;strokeColor=none;fillColor=none;align=left;verticalAlign=middle;spacingLeft=4;spacingRight=4;overflow=hidden;points=[[0,0.5],[1,0.5]];portConstraint=eastwest;rotatable=0;whiteSpace=wrap;html=1;" parent="2ZmqCsTrlQgmf_7_Rd1S-93" vertex="1">
          <mxGeometry y="30" width="140" height="30" as="geometry" />
        </mxCell>
        <mxCell id="2ZmqCsTrlQgmf_7_Rd1S-95" value="合同模板数量：&lt;i&gt;int&lt;/i&gt;" style="text;strokeColor=none;fillColor=none;align=left;verticalAlign=middle;spacingLeft=4;spacingRight=4;overflow=hidden;points=[[0,0.5],[1,0.5]];portConstraint=eastwest;rotatable=0;whiteSpace=wrap;html=1;" parent="2ZmqCsTrlQgmf_7_Rd1S-93" vertex="1">
          <mxGeometry y="60" width="140" height="30" as="geometry" />
        </mxCell>
        <mxCell id="2ZmqCsTrlQgmf_7_Rd1S-97" value="" style="endArrow=classic;html=1;rounded=0;" parent="1" edge="1">
          <mxGeometry width="50" height="50" relative="1" as="geometry">
            <mxPoint x="260" y="280" as="sourcePoint" />
            <mxPoint x="730" y="210" as="targetPoint" />
          </mxGeometry>
        </mxCell>
        <mxCell id="2ZmqCsTrlQgmf_7_Rd1S-98" value="合同" style="swimlane;fontStyle=0;childLayout=stackLayout;horizontal=1;startSize=30;horizontalStack=0;resizeParent=1;resizeParentMax=0;resizeLast=0;collapsible=1;marginBottom=0;whiteSpace=wrap;html=1;" parent="1" vertex="1">
          <mxGeometry x="730" y="160" width="140" height="120" as="geometry" />
        </mxCell>
        <mxCell id="2ZmqCsTrlQgmf_7_Rd1S-99" value="Item 1" style="text;strokeColor=none;fillColor=none;align=left;verticalAlign=middle;spacingLeft=4;spacingRight=4;overflow=hidden;points=[[0,0.5],[1,0.5]];portConstraint=eastwest;rotatable=0;whiteSpace=wrap;html=1;" parent="2ZmqCsTrlQgmf_7_Rd1S-98" vertex="1">
          <mxGeometry y="30" width="140" height="30" as="geometry" />
        </mxCell>
        <mxCell id="2ZmqCsTrlQgmf_7_Rd1S-100" value="Item 2" style="text;strokeColor=none;fillColor=none;align=left;verticalAlign=middle;spacingLeft=4;spacingRight=4;overflow=hidden;points=[[0,0.5],[1,0.5]];portConstraint=eastwest;rotatable=0;whiteSpace=wrap;html=1;" parent="2ZmqCsTrlQgmf_7_Rd1S-98" vertex="1">
          <mxGeometry y="60" width="140" height="30" as="geometry" />
        </mxCell>
        <mxCell id="2ZmqCsTrlQgmf_7_Rd1S-101" value="Item 3" style="text;strokeColor=none;fillColor=none;align=left;verticalAlign=middle;spacingLeft=4;spacingRight=4;overflow=hidden;points=[[0,0.5],[1,0.5]];portConstraint=eastwest;rotatable=0;whiteSpace=wrap;html=1;" parent="2ZmqCsTrlQgmf_7_Rd1S-98" vertex="1">
          <mxGeometry y="90" width="140" height="30" as="geometry" />
        </mxCell>
        <mxCell id="2ZmqCsTrlQgmf_7_Rd1S-102" value="查看" style="text;html=1;strokeColor=none;fillColor=none;align=center;verticalAlign=middle;whiteSpace=wrap;rounded=0;" parent="1" vertex="1">
          <mxGeometry x="490" y="220" width="60" height="30" as="geometry" />
        </mxCell>
        <mxCell id="2ZmqCsTrlQgmf_7_Rd1S-103" value="" style="endArrow=classic;html=1;rounded=0;" parent="1" target="2ZmqCsTrlQgmf_7_Rd1S-101" edge="1">
          <mxGeometry width="50" height="50" relative="1" as="geometry">
            <mxPoint x="820" y="410" as="sourcePoint" />
            <mxPoint x="870" y="360" as="targetPoint" />
          </mxGeometry>
        </mxCell>
        <mxCell id="2ZmqCsTrlQgmf_7_Rd1S-105" value="" style="endArrow=classic;html=1;rounded=0;exitX=0;exitY=0.5;exitDx=0;exitDy=0;entryX=1;entryY=0.5;entryDx=0;entryDy=0;" parent="1" source="2ZmqCsTrlQgmf_7_Rd1S-95" target="2ZmqCsTrlQgmf_7_Rd1S-8" edge="1">
          <mxGeometry width="50" height="50" relative="1" as="geometry">
            <mxPoint x="650" y="530" as="sourcePoint" />
            <mxPoint x="700" y="480" as="targetPoint" />
          </mxGeometry>
        </mxCell>
        <mxCell id="2ZmqCsTrlQgmf_7_Rd1S-106" value="" style="endArrow=none;html=1;rounded=0;exitX=0.75;exitY=0;exitDx=0;exitDy=0;" parent="1" source="2ZmqCsTrlQgmf_7_Rd1S-86" edge="1">
          <mxGeometry width="50" height="50" relative="1" as="geometry">
            <mxPoint x="620" y="340" as="sourcePoint" />
            <mxPoint x="560" y="320" as="targetPoint" />
          </mxGeometry>
        </mxCell>
        <mxCell id="2ZmqCsTrlQgmf_7_Rd1S-107" value="逾期扣费" style="text;html=1;strokeColor=none;fillColor=none;align=center;verticalAlign=middle;whiteSpace=wrap;rounded=0;" parent="1" vertex="1">
          <mxGeometry x="590" y="330" width="60" height="30" as="geometry" />
        </mxCell>
        <mxCell id="2ZmqCsTrlQgmf_7_Rd1S-108" value="服务质量报表" style="swimlane;fontStyle=0;childLayout=stackLayout;horizontal=1;startSize=30;horizontalStack=0;resizeParent=1;resizeParentMax=0;resizeLast=0;collapsible=1;marginBottom=0;whiteSpace=wrap;html=1;" parent="1" vertex="1">
          <mxGeometry x="-450" y="90" width="140" height="120" as="geometry" />
        </mxCell>
        <mxCell id="2ZmqCsTrlQgmf_7_Rd1S-109" value="顾客id：" style="text;strokeColor=none;fillColor=none;align=left;verticalAlign=middle;spacingLeft=4;spacingRight=4;overflow=hidden;points=[[0,0.5],[1,0.5]];portConstraint=eastwest;rotatable=0;whiteSpace=wrap;html=1;" parent="2ZmqCsTrlQgmf_7_Rd1S-108" vertex="1">
          <mxGeometry y="30" width="140" height="30" as="geometry" />
        </mxCell>
        <mxCell id="2ZmqCsTrlQgmf_7_Rd1S-110" value="内容：string" style="text;strokeColor=none;fillColor=none;align=left;verticalAlign=middle;spacingLeft=4;spacingRight=4;overflow=hidden;points=[[0,0.5],[1,0.5]];portConstraint=eastwest;rotatable=0;whiteSpace=wrap;html=1;" parent="2ZmqCsTrlQgmf_7_Rd1S-108" vertex="1">
          <mxGeometry y="60" width="140" height="30" as="geometry" />
        </mxCell>
        <mxCell id="2ZmqCsTrlQgmf_7_Rd1S-111" value="日期：string" style="text;strokeColor=none;fillColor=none;align=left;verticalAlign=middle;spacingLeft=4;spacingRight=4;overflow=hidden;points=[[0,0.5],[1,0.5]];portConstraint=eastwest;rotatable=0;whiteSpace=wrap;html=1;" parent="2ZmqCsTrlQgmf_7_Rd1S-108" vertex="1">
          <mxGeometry y="90" width="140" height="30" as="geometry" />
        </mxCell>
        <mxCell id="2ZmqCsTrlQgmf_7_Rd1S-112" value="查看" style="text;html=1;strokeColor=none;fillColor=none;align=center;verticalAlign=middle;whiteSpace=wrap;rounded=0;" parent="1" vertex="1">
          <mxGeometry x="-540" y="150" width="60" height="30" as="geometry" />
        </mxCell>
        <mxCell id="2ZmqCsTrlQgmf_7_Rd1S-113" value="" style="endArrow=classic;html=1;rounded=0;entryX=1.02;entryY=0.233;entryDx=0;entryDy=0;entryPerimeter=0;exitX=0;exitY=0.25;exitDx=0;exitDy=0;" parent="1" source="2ZmqCsTrlQgmf_7_Rd1S-62" target="2ZmqCsTrlQgmf_7_Rd1S-110" edge="1">
          <mxGeometry width="50" height="50" relative="1" as="geometry">
            <mxPoint x="-510" y="250" as="sourcePoint" />
            <mxPoint x="-460" y="200" as="targetPoint" />
          </mxGeometry>
        </mxCell>
        <mxCell id="2ZmqCsTrlQgmf_7_Rd1S-114" value="生成" style="text;html=1;strokeColor=none;fillColor=none;align=center;verticalAlign=middle;whiteSpace=wrap;rounded=0;" parent="1" vertex="1">
          <mxGeometry x="-300" y="65" width="60" height="25" as="geometry" />
        </mxCell>
        <mxCell id="Jp_LWNkQW_n1TvvJT0ye-1" value="推荐套餐" style="swimlane;fontStyle=0;childLayout=stackLayout;horizontal=1;startSize=30;horizontalStack=0;resizeParent=1;resizeParentMax=0;resizeLast=0;collapsible=1;marginBottom=0;whiteSpace=wrap;html=1;" vertex="1" parent="1">
          <mxGeometry x="710" y="17.5" width="140" height="120" as="geometry" />
        </mxCell>
        <mxCell id="Jp_LWNkQW_n1TvvJT0ye-2" value="套餐名字：name" style="text;strokeColor=none;fillColor=none;align=left;verticalAlign=middle;spacingLeft=4;spacingRight=4;overflow=hidden;points=[[0,0.5],[1,0.5]];portConstraint=eastwest;rotatable=0;whiteSpace=wrap;html=1;" vertex="1" parent="Jp_LWNkQW_n1TvvJT0ye-1">
          <mxGeometry y="30" width="140" height="30" as="geometry" />
        </mxCell>
        <mxCell id="Jp_LWNkQW_n1TvvJT0ye-3" value="套餐id:iint" style="text;strokeColor=none;fillColor=none;align=left;verticalAlign=middle;spacingLeft=4;spacingRight=4;overflow=hidden;points=[[0,0.5],[1,0.5]];portConstraint=eastwest;rotatable=0;whiteSpace=wrap;html=1;" vertex="1" parent="Jp_LWNkQW_n1TvvJT0ye-1">
          <mxGeometry y="60" width="140" height="30" as="geometry" />
        </mxCell>
        <mxCell id="Jp_LWNkQW_n1TvvJT0ye-13" value="优惠；int" style="text;strokeColor=none;fillColor=none;align=left;verticalAlign=middle;spacingLeft=4;spacingRight=4;overflow=hidden;points=[[0,0.5],[1,0.5]];portConstraint=eastwest;rotatable=0;whiteSpace=wrap;html=1;" vertex="1" parent="Jp_LWNkQW_n1TvvJT0ye-1">
          <mxGeometry y="90" width="140" height="30" as="geometry" />
        </mxCell>
        <mxCell id="Jp_LWNkQW_n1TvvJT0ye-5" value="套餐生产器" style="swimlane;fontStyle=0;childLayout=stackLayout;horizontal=1;startSize=30;horizontalStack=0;resizeParent=1;resizeParentMax=0;resizeLast=0;collapsible=1;marginBottom=0;whiteSpace=wrap;html=1;" vertex="1" parent="1">
          <mxGeometry x="520" y="30" width="140" height="60" as="geometry" />
        </mxCell>
        <mxCell id="Jp_LWNkQW_n1TvvJT0ye-6" value="List&amp;lt;套餐&amp;gt;" style="text;strokeColor=none;fillColor=none;align=left;verticalAlign=middle;spacingLeft=4;spacingRight=4;overflow=hidden;points=[[0,0.5],[1,0.5]];portConstraint=eastwest;rotatable=0;whiteSpace=wrap;html=1;" vertex="1" parent="Jp_LWNkQW_n1TvvJT0ye-5">
          <mxGeometry y="30" width="140" height="30" as="geometry" />
        </mxCell>
        <mxCell id="Jp_LWNkQW_n1TvvJT0ye-9" value="" style="endArrow=classic;html=1;rounded=0;exitX=0;exitY=0.5;exitDx=0;exitDy=0;entryX=1;entryY=0.5;entryDx=0;entryDy=0;" edge="1" parent="1" source="Jp_LWNkQW_n1TvvJT0ye-5" target="tpzudZCZBXig5IgBzqRn-7">
          <mxGeometry width="50" height="50" relative="1" as="geometry">
            <mxPoint x="550" y="70" as="sourcePoint" />
            <mxPoint x="600" y="20" as="targetPoint" />
          </mxGeometry>
        </mxCell>
        <mxCell id="Jp_LWNkQW_n1TvvJT0ye-10" value="" style="endArrow=classic;html=1;rounded=0;exitX=1;exitY=0.5;exitDx=0;exitDy=0;entryX=0;entryY=0.5;entryDx=0;entryDy=0;" edge="1" parent="1" source="Jp_LWNkQW_n1TvvJT0ye-6" target="Jp_LWNkQW_n1TvvJT0ye-2">
          <mxGeometry width="50" height="50" relative="1" as="geometry">
            <mxPoint x="630" y="200" as="sourcePoint" />
            <mxPoint x="680" y="150" as="targetPoint" />
          </mxGeometry>
        </mxCell>
        <mxCell id="Jp_LWNkQW_n1TvvJT0ye-11" value="" style="endArrow=classic;html=1;rounded=0;exitX=1;exitY=0.5;exitDx=0;exitDy=0;entryX=0.059;entryY=0.95;entryDx=0;entryDy=0;entryPerimeter=0;" edge="1" parent="1" source="tpzudZCZBXig5IgBzqRn-2" target="Jp_LWNkQW_n1TvvJT0ye-3">
          <mxGeometry width="50" height="50" relative="1" as="geometry">
            <mxPoint x="440" y="220" as="sourcePoint" />
            <mxPoint x="710" y="122.5" as="targetPoint" />
          </mxGeometry>
        </mxCell>
        <mxCell id="Jp_LWNkQW_n1TvvJT0ye-12" value="查看" style="text;html=1;strokeColor=none;fillColor=none;align=center;verticalAlign=middle;whiteSpace=wrap;rounded=0;" vertex="1" parent="1">
          <mxGeometry x="490" y="150" width="60" height="30" as="geometry" />
        </mxCell>
      </root>
    </mxGraphModel>
  </diagram>
</mxfile>
